# xmcd
#
# Track frame offsets:
#	150
#	17860
#	30395
#	44915
#	58782
#	74588
#	93444
#	109281
#	129060
#	143465
#	161049
#	174466
#	190033
#	209563
#	225993
#
# Disc length: 3124 seconds
# Revision: 0
# Processed by: cddbd v1.5.2PL0 Copyright (c) Steve Scherf et al.
# Submitted via: dBpowerAMP V12.0
#
DISCID=cf0c320f
DTITLE=Jack Williams - Far Away, Long Ago
DYEAR=2016
DGENRE=Blues
TTITLE0=John Henry
TTITLE1=Dreamin'
TTITLE2=Ain't I a Woman
TTITLE3=I'll be Damned
TTITLE4=My Life's Companion
TTITLE5=Valley of Steel
TTITLE6=I Don't Sing The Blues
TTITLE7=Never Say Goodbye
TTITLE8=Banks of The Edisto
TTITLE9=Turning Away
TTITLE10=Tuesday at The Candlelight
TTITLE11=Far Away, Long Ago
TTITLE12=Sail on
TTITLE13=Sing-Song World
TTITLE14=Tenderly
EXTD=
EXTT0=
EXTT1=
EXTT2=
EXTT3=
EXTT4=
EXTT5=
EXTT6=
EXTT7=
EXTT8=
EXTT9=
EXTT10=
EXTT11=
EXTT12=
EXTT13=
EXTT14=
PLAYORDER=
